<?xml version="1.0" encoding="UTF-8" standalone="no"?>
<!DOCTYPE svg PUBLIC "-//W3C//DTD SVG 1.1//EN" "http://www.w3.org/Graphics/SVG/1.1/DTD/svg11.dtd">
<svg width="100%" height="100%" viewBox="0 0 1100 1100" version="1.1" xmlns="http://www.w3.org/2000/svg" xmlns:xlink="http://www.w3.org/1999/xlink" xml:space="preserve" xmlns:serif="http://www.serif.com/" style="fill-rule:evenodd;clip-rule:evenodd;stroke-linejoin:round;stroke-miterlimit:2;">
    <path d="M550,22.711C841.018,22.711 1077.29,258.982 1077.29,550C1077.29,841.018 841.018,1077.29 550,1077.29C258.982,1077.29 22.711,841.018 22.711,550C22.711,258.982 258.982,22.711 550,22.711ZM330.968,796.531C283.453,801.956 229.582,808.265 211.254,810.549L177.932,814.704L171.648,756.821C154.008,594.336 132.986,390.344 133.313,384.833C133.58,380.33 139.069,375.514 153.007,367.55C163.634,361.478 174.193,353.781 176.472,350.445C178.75,347.109 182.414,344.133 184.614,343.831C186.813,343.529 197.296,337.305 207.908,330C218.52,322.695 228.435,317.653 229.94,318.797C231.446,319.941 234.335,330.018 236.36,341.192L240.043,361.507L257.88,361.434C267.689,361.393 407.107,343.457 567.697,321.576C882.09,278.738 871.133,279.698 875.391,294.628C876.574,298.776 879.646,300.854 884.603,300.86C888.693,300.864 893.952,302.044 896.288,303.481C903.342,307.819 911.618,324.32 913.454,337.707C914.461,345.045 918.173,354.097 922.329,359.349C929.415,368.303 946.793,376.068 956.705,374.708C969.31,372.978 975.056,387.143 964.466,393.84C960.236,396.515 957.241,402.16 956.293,409.244C955.47,415.394 952.423,423.766 949.523,427.847C946.622,431.929 942.652,439.981 940.7,445.741C938.748,451.5 934.374,457.915 930.978,459.996C923.623,464.503 923.836,469.113 931.866,479.251C936.944,485.662 937.468,488.205 935.364,496.234C934.002,501.428 930.511,506.807 927.605,508.189C923.21,510.278 922.717,513.59 924.675,527.861C926.845,543.678 927.696,545.235 935.537,547.752C941.646,549.713 944.912,553.291 947.129,560.452C949.467,568.01 957.22,575.914 979.173,593.124C995.1,605.611 1008.26,616.765 1008.42,617.911C1008.58,619.058 1006.03,621.268 1002.75,622.824C990.116,628.831 958.295,660.324 957.493,667.619C955.973,681.443 928.548,696.943 903.578,698.091C886.175,698.891 885.936,699.015 875.371,712.655L864.716,726.412L641.038,756.539C518.015,773.109 378.483,791.105 330.968,796.531L330.968,796.531ZM880.637,639.095L840.274,671.608L858.723,720.043L815.328,691.702L774.964,724.215L788.508,674.187L745.114,645.846L796.879,643.267L810.423,593.238L828.872,641.673L880.637,639.095Z"/>
</svg>
